<svg width="512" height="512" viewBox="0 0 512 512" fill="none" xmlns="http://www.w3.org/2000/svg">
<rect width="512" height="512" fill="url(#paint0_linear_3_2873)"/>
<path d="M258.157 248.615C257.412 254.409 256.607 260.195 255.944 265.998C254.911 275.039 251.927 283.468 247.351 291.222C237.036 308.692 220.737 315.709 201.3 315.253C187.304 314.925 173.821 311.288 161.388 304.378C145.399 295.492 133.883 282.616 127.451 265.564C124.851 258.663 121.123 255.748 113.537 256.071C102.994 256.519 100.936 254.538 99.0419 244.021C97.6342 236.216 96.5751 228.299 96.0671 220.391C95.3697 209.538 100.092 204.062 110.872 203.575C116.985 203.3 121.803 202.426 124.304 195.99C125.428 193.097 128.411 191.788 131.579 191.499C132.897 191.379 134.231 191.263 135.549 191.327C162.072 192.597 188.514 190.208 214.994 189.562C252.732 188.641 290.453 187.207 328.191 186.217C342.097 185.851 356.019 186.032 369.929 186.153C374.23 186.191 379.266 186.209 382.06 189.571C386.68 195.133 392.164 194.771 398.174 194.048C400.46 193.773 402.811 193.863 405.123 193.992C410.491 194.294 414.206 197.204 414.469 202.482C414.981 212.693 417.048 222.896 415.33 233.164C413.827 242.153 412.204 243.621 403.276 244.486C395.307 245.261 395.118 245.291 394.846 253.372C394.394 266.782 391.613 279.663 386.262 291.932C379.198 308.145 367.41 318.727 349.712 322.463C334.218 325.735 318.901 326.506 303.592 321.633C274.727 312.441 262.014 295.604 261.037 265.37C260.86 259.846 261.885 254.224 260.4 248.783C259.655 248.722 258.906 248.671 258.157 248.615ZM381.686 231.003C381.096 243.405 381.501 255.649 378.836 267.759C373.894 290.197 357.483 306.165 334.924 309.492C326.366 310.754 317.812 309.854 309.228 308.455C293.488 305.898 283.703 296.801 278.408 282.246C274.227 270.76 274.318 258.835 275.157 246.893C275.355 244.081 275.416 239.824 278.972 239.824C283.414 239.824 282.708 244.409 283.087 247.508C283.406 250.13 283.234 252.812 283.501 255.447C284.142 261.702 284.598 267.996 285.709 274.174C288.408 289.168 296.851 297.662 311.845 300.163C317.355 301.08 323.077 301.175 328.678 300.986C349.906 300.275 366.356 285.823 369.869 264.806C372.279 250.375 372.964 235.854 371.108 221.273C370.389 215.612 370.351 210.278 374.953 205.581C377.829 202.645 376.253 199.49 372.068 198.444C370.488 198.047 368.784 198.073 367.135 198.052C352.932 197.845 338.756 197.389 324.515 197.574C267.542 198.314 210.599 201.074 153.604 200.441C149.966 200.402 146.294 200.437 142.691 200.876C135.002 201.81 132.716 203.963 132.453 211.595C132.135 220.856 131.584 230.245 132.682 239.393C135.94 266.524 148.223 287.674 174.613 298.652C182.646 301.993 191.084 304.111 199.66 304.494C214.564 305.162 228.112 301.64 236.692 287.915C241.664 279.964 245.026 271.41 245.242 261.792C245.353 256.837 245.904 251.878 246.563 246.961C247.726 238.265 252.534 234.912 261.876 235.984C270.801 237.008 274.154 240.771 272.768 250.096C271.373 259.455 272.449 268.556 273.448 277.786C274.641 288.811 280.013 296.978 289.132 303C310.218 316.927 332.626 317.289 355.739 309.393C362.528 307.073 367.677 302.32 371.569 296.328C375.568 290.167 378.259 283.451 380.076 276.309C383.903 261.241 382.358 246.027 381.686 231.003ZM119.788 231.666C119.788 225.992 119.878 222.057 119.758 218.122C119.667 215.255 120.128 211.643 115.5 212.099C111.931 212.448 107.191 212.809 107.437 217.459C107.863 225.591 108.259 233.853 110.765 241.735C111.768 244.895 114.493 245.067 117.226 244.779C120.339 244.447 120.606 242.26 120.386 239.742C120.098 236.479 119.9 233.207 119.788 231.666ZM403.629 219.017C403.749 219.017 403.874 219.013 403.995 219.013C403.827 215.405 403.921 211.763 403.418 208.203C402.953 204.944 400.137 204.445 397.382 204.372C395.04 204.311 391.842 204.372 391.833 207.123C391.807 214.953 392.496 222.81 394.976 230.327C395.656 232.389 397.739 233.017 399.875 232.776C402.156 232.518 403.465 231.041 403.586 228.876C403.762 225.6 403.629 222.306 403.629 219.017Z" fill="white"/>
<path d="M224.22 222.789C226.217 222.771 228.323 222.789 229.563 224.648C231.078 226.921 230.096 229.095 228.762 231.093C226.682 234.21 223.669 236.328 220.483 238.072C202.2 248.068 183.864 257.974 165.521 267.858C164.083 268.633 162.485 269.223 160.888 269.554C159.175 269.912 157.668 269.266 156.721 267.634C155.946 266.3 156.243 264.888 157.065 263.923C158.766 261.926 160.553 259.894 162.662 258.37C179.581 246.135 197.74 235.885 215.752 225.402C218.331 223.908 221.15 222.888 224.22 222.789Z" fill="white"/>
<path d="M312.116 273.756C308.879 273.808 308.216 272.068 308.845 269.834C309.942 265.947 312.19 262.589 314.777 259.584C325.165 247.53 336.957 236.832 348.197 225.608C349.118 224.687 350.263 223.929 351.43 223.335C353.243 222.405 355.176 221.811 356.854 223.65C358.129 225.044 358.047 226.728 357.388 228.295C356.751 229.801 355.963 231.308 354.96 232.591C345.782 244.34 336.199 255.752 325.251 265.904C321.398 269.485 317.127 272.727 312.116 273.756Z" fill="white"/>
<path d="M152.455 249.338C148.675 249.23 147.026 246.311 148.899 243.694C150.595 241.322 152.795 239.204 155.115 237.413C167.144 228.148 179.779 219.736 192.604 211.634C199.612 207.209 204.404 206.86 205.682 210.437C207.766 216.253 202.733 218.802 199.221 221.308C185.518 231.084 170.704 239.118 156.303 247.792C154.93 248.627 153.29 249.015 152.455 249.338Z" fill="white"/>
<path d="M196.431 298.097C187.614 298.583 179.486 296.181 172.034 291.364C169.8 289.922 167.587 288.402 166.364 285.931C164.578 282.327 166.321 279.262 170.346 278.836C173.468 278.505 176.227 279.749 178.879 281.088C190.511 286.968 202.479 286.434 214.68 283.331C217.922 282.508 222.261 279.163 224.323 283.813C226.364 288.415 221.529 290.697 218.369 292.78C211.787 297.133 204.3 298.377 196.431 298.097Z" fill="white"/>
<path d="M337.697 222.22C337.671 224.717 336.224 226.598 334.782 228.359C327.683 237.038 320.67 245.799 313.235 254.185C310.291 257.509 306.709 261.487 301.405 258.951C298.366 257.5 299.429 252.48 304.505 247.03C312.37 238.588 320.627 230.507 328.746 222.302C330.133 220.903 331.575 219.439 333.658 219.164C335.936 218.867 337.572 219.59 337.697 222.22Z" fill="white"/>
<defs>
<linearGradient id="paint0_linear_3_2873" x1="256" y1="-38.5" x2="256" y2="604" gradientUnits="userSpaceOnUse">
<stop stop-color="#16A34A"/>
<stop offset="1" stop-color="#14532B"/>
</linearGradient>
</defs>
</svg>
